<?xml version="1.0" encoding="utf-8"?>
<!-- Generator: Adobe Illustrator 16.0.0, SVG Export Plug-In . SVG Version: 6.00 Build 0)  -->
<!DOCTYPE svg PUBLIC "-//W3C//DTD SVG 1.1//EN" "http://www.w3.org/Graphics/SVG/1.1/DTD/svg11.dtd">
<svg version="1.1" id="Layer_1" xmlns="http://www.w3.org/2000/svg" xmlns:xlink="http://www.w3.org/1999/xlink" x="0px" y="0px"
	 width="960px" height="560px" viewBox="0 0 960 560" enable-background="new 0 0 960 560" xml:space="preserve">
<symbol  id="New_Symbol_2" viewBox="-372 -256.678 743 513.678">
	<polygon points="371,-73 -274,-73 -274,257 371,257 	"/>
	<polygon fill="#975C7C" points="-216.322,-220.678 -371.178,-65.822 -216.322,89.035 -61.465,-65.822 	"/>
	<polygon fill="#FBB03B" points="-8.322,-198.678 -163.178,-43.822 -8.322,111.035 146.535,-43.822 	"/>
	<polygon fill="#FFFFFF" points="-8.322,111.035 -60.178,59.178 -30.322,29.322 9.178,68.822 27.678,50.322 40.035,62.678 	"/>
	<polygon fill="#619D7C" points="-111.322,-256.678 -266.178,-101.822 -111.322,53.035 43.535,-101.822 	"/>
	<polygon fill="#29A5A9" points="138.678,-232.678 -16.178,-77.822 138.678,77.035 293.535,-77.822 	"/>
	<polygon fill="#FEF9E7" points="39.063,199.436 35,203.5 30.937,199.436 35,195.373 	"/>
	<polygon fill="#FEF9E7" points="-49.937,156.436 -54,160.5 -58.063,156.436 -54,152.373 	"/>
	<polygon fill="#FEF9E7" points="139.986,192.936 137,195.922 134.014,192.936 137,189.95 	"/>
	<polygon fill="#FEF9E7" points="62.986,109.936 60,112.922 57.014,109.936 60,106.95 	"/>
	<polygon fill="#FEF9E7" points="176.986,73.936 174,76.922 171.014,73.936 174,70.95 	"/>
	<polygon fill="#FEF9E7" points="-89.014,217.936 -92,220.922 -94.986,217.936 -92,214.95 	"/>
	<polygon fill="#FEF9E7" points="-79.014,106.936 -82,109.922 -84.986,106.936 -82,103.95 	"/>
	<polygon display="none" fill="none" points="-372,257 371,257 371,-256 -372,-256 	"/>
</symbol>
<rect x="-44" y="78" fill="#FEF9E7" width="1057" height="386"/>
<g>
	<defs>
		<path id="SVGID_1_" d="M411.954,222.187c-1.697,0-3.386,0.052-5.061,0.144c-5.81-44.452-43.825-78.775-89.861-78.775
			c-41.297,0-76.141,27.623-87.071,65.396c-6.422-2.049-13.263-3.16-20.364-3.16c-36.95,0-66.904,29.953-66.904,66.905
			c0,7.22,1.148,14.171,3.264,20.684c-22.261,7.601-38.27,28.464-38.27,53.299c0,31.233,25.318,56.321,56.55,56.321h65.659
			l38.583,24.602L263.79,466h93.093l-7.709-63h62.78c50.056,0,90.635-40.35,90.635-90.406
			C502.589,262.538,462.01,222.187,411.954,222.187z M269.98,415.564L241.317,403h30.182L269.98,415.564z"/>
	</defs>
	<clipPath id="SVGID_2_">
		<use xlink:href="#SVGID_1_"  overflow="visible"/>
	</clipPath>
	<g clip-path="url(#SVGID_2_)">
		
			<use xlink:href="#New_Symbol_2"  width="743" height="513.678" x="-372" y="-256.678" transform="matrix(1 0 0 -1 308 381)" overflow="visible"/>
	</g>
</g>
</svg>
