<?xml version="1.0" encoding="utf-8"?>
<!-- Generator: Adobe Illustrator 16.0.0, SVG Export Plug-In . SVG Version: 6.00 Build 0)  -->
<!DOCTYPE svg PUBLIC "-//W3C//DTD SVG 1.1//EN" "http://www.w3.org/Graphics/SVG/1.1/DTD/svg11.dtd">
<svg version="1.1" id="Layer_1" xmlns="http://www.w3.org/2000/svg" xmlns:xlink="http://www.w3.org/1999/xlink" x="0px" y="0px"
	 width="477.056px" height="389.58px" viewBox="0 0 477.056 389.58" enable-background="new 0 0 477.056 389.58"
	 xml:space="preserve">
<symbol  id="New_Symbol_2" viewBox="-372 -256.678 743 513.678">
	<polygon points="371,-73 -274,-73 -274,257 371,257 	"/>
	<polygon fill="#975C7C" points="-216.322,-220.678 -371.178,-65.822 -216.322,89.035 -61.465,-65.822 	"/>
	<polygon fill="#F3C649" points="-8.322,-198.678 -163.178,-43.822 -8.322,111.035 146.535,-43.822 	"/>
	<polygon fill="#FFFFFF" points="-8.322,111.035 -60.178,59.178 -30.322,29.322 9.178,68.822 27.678,50.322 40.035,62.678 	"/>
	<polygon fill="#619D7C" points="-111.322,-256.678 -266.178,-101.822 -111.322,53.035 43.535,-101.822 	"/>
	<polygon fill="#29A5A9" points="138.678,-232.678 -16.178,-77.822 138.678,77.035 293.535,-77.822 	"/>
	<polygon fill="#FEF9E7" points="39.063,199.436 35,203.5 30.937,199.436 35,195.373 	"/>
	<polygon fill="#FEF9E7" points="-49.937,156.436 -54,160.5 -58.063,156.436 -54,152.373 	"/>
	<polygon fill="#FEF9E7" points="139.986,192.936 137,195.922 134.014,192.936 137,189.95 	"/>
	<polygon fill="#FEF9E7" points="62.986,109.936 60,112.922 57.014,109.936 60,106.95 	"/>
	<polygon fill="#FEF9E7" points="176.986,73.936 174,76.922 171.014,73.936 174,70.95 	"/>
	<polygon fill="#FEF9E7" points="-89.014,217.936 -92,220.922 -94.986,217.936 -92,214.95 	"/>
	<polygon fill="#FEF9E7" points="-79.014,106.936 -82,109.922 -84.986,106.936 -82,103.95 	"/>
	<polygon display="none" fill="none" points="-372,257 371,257 371,-256 -372,-256 	"/>
</symbol>
<g>
	<defs>
		<path id="SVGID_1_" d="M367.567,94.989c-2.051,0-4.091,0.062-6.113,0.174C354.435,41.463,308.511,0,252.897,0
			c-49.888,0-91.981,33.369-105.186,79c-7.758-2.475-16.021-3.817-24.6-3.817c-44.637,0-80.823,36.184-80.823,80.824
			c0,8.722,1.387,17.119,3.943,24.987C19.34,190.176,0,215.459,0,245.461c0,37.73,30.585,68.119,68.314,68.119h79.319l46.61,29.666
			l-5.664,46.334h112.459l-9.313-76h75.841c60.469,0,109.489-48.824,109.489-109.295C477.056,143.816,428.036,94.989,367.567,94.989
			z M196.057,328.758l-34.625-15.178h36.46L196.057,328.758z"/>
	</defs>
	<clipPath id="SVGID_2_">
		<use xlink:href="#SVGID_1_"  overflow="visible"/>
	</clipPath>
	<g clip-path="url(#SVGID_2_)">
		
			<use xlink:href="#New_Symbol_2"  width="743" height="513.678" x="-372" y="-256.678" transform="matrix(1.208 0 0 -1.208 241.9863 286.8418)" overflow="visible"/>
	</g>
</g>
</svg>
