<?xml version="1.0" encoding="utf-8"?>
<!-- Generator: Adobe Illustrator 16.0.0, SVG Export Plug-In . SVG Version: 6.00 Build 0)  -->
<!DOCTYPE svg PUBLIC "-//W3C//DTD SVG 1.1//EN" "http://www.w3.org/Graphics/SVG/1.1/DTD/svg11.dtd">
<svg version="1.1" id="Layer_1" xmlns="http://www.w3.org/2000/svg" xmlns:xlink="http://www.w3.org/1999/xlink" x="0px" y="0px"
	 width="440.84px" height="440.84px" viewBox="0 0 440.84 440.84" enable-background="new 0 0 440.84 440.84" xml:space="preserve">
<path fill="#FFEEDE" d="M1262.207,459.869c0,57.897-46.942,104.84-104.84,104.84h-462.29c-57.901,0-104.84-46.942-104.84-104.84
	V-2.42c0-57.902,46.938-104.84,104.84-104.84h462.29c57.897,0,104.84,46.938,104.84,104.84V459.869z"/>
<g>
	<polygon fill="#649B7A" points="874.261,401.074 978.185,401.074 968.39,320.074 884.056,320.074 	"/>
	<polygon fill="#649B7A" points="832.056,327.074 891.39,365.488 891.39,348.407 842.723,327.074 	"/>
	<path fill="#008C7B" d="M1039.661,329.902c55.88,0,101.179-45.299,101.179-101.178c0-55.879-45.299-101.178-101.179-101.178
		c-1.896,0-3.778,0.057-5.648,0.16c-6.486-49.623-48.925-87.939-100.316-87.939c-46.101,0-84.996,30.835-97.198,73.004
		c-7.169-2.289-14.807-3.528-22.734-3.528c-41.248,0-74.687,33.438-74.687,74.687c0,8.06,1.281,15.819,3.644,23.091
		c-24.851,8.484-42.722,32.031-42.722,59.754c0,34.865,28.264,63.127,63.128,63.127H1039.661z"/>
</g>
<g>
	<g>
		<path fill="#FFEEDE" d="M858.849,204.224c-0.905-1.924-1.472-4.415-1.472-7.132v-28.075h-9.169v-8.377h9.169v-11.207l9.736-3.962
			v15.169h14.83v8.377h-14.83v26.376c0,1.585,0.227,2.717,0.679,3.736c0.906,1.585,2.717,2.377,5.547,2.377
			c2.943,0,6.453-1.358,9.283-2.717l-1.019,8.717c-2.83,1.472-6.453,2.83-10.981,2.83C865.189,210.337,861,208.413,858.849,204.224z
			"/>
		<path fill="#FFEEDE" d="M899.942,188.149c1.358,9.283,8.151,13.811,17.66,13.811c6.226,0,11.547-1.924,17.32-5.207l-0.792,8.943
			c-5.095,3.17-11.321,4.642-18,4.642c-15.736,0-26.377-10.188-26.377-25.132c0-13.698,9.396-25.471,24.226-25.471
			c15.056,0,22.981,10.754,22.981,23.207c0,1.811-0.227,3.735-0.453,5.207H899.942z M899.942,180.904h27.282
			c-0.453-7.811-5.207-13.131-13.471-13.131C907.188,167.772,901.188,172.074,899.942,180.904z"/>
		<path fill="#FFEEDE" d="M944.432,201.281h7.925v-66.338h-7.925v-8.377h17.66v74.715h7.812v8.151h-25.472V201.281z"/>
		<path fill="#FFEEDE" d="M976.694,201.281h7.925v-66.338h-7.925v-8.377h17.66v74.715h7.812v8.151h-25.472V201.281z"/>
	</g>
	<g>
		<path fill="#FFEEDE" d="M838.959,279.363c-0.905-1.924-1.472-4.415-1.472-7.132v-28.075h-9.169v-8.377h9.169v-11.207l9.736-3.962
			v15.169h14.83v8.377h-14.83v26.377c0,1.585,0.227,2.717,0.679,3.736c0.906,1.584,2.717,2.377,5.547,2.377
			c2.943,0,6.453-1.358,9.283-2.717l-1.019,8.717c-2.83,1.472-6.453,2.83-10.981,2.83
			C845.299,285.476,841.11,283.551,838.959,279.363z"/>
		<path fill="#FFEEDE" d="M910.504,242.005c0,3.51-2.83,6.566-6.227,6.566c-3.283,0-5.547-2.039-6.453-4.189
			c-3.623,1.133-7.811,5.207-10.188,9.85v22.188h8.943v8.15h-26.15v-8.15h7.585v-32.264h-7.585v-8.377h16.868v11.094
			c3.849-6.679,9.509-11.999,15.169-11.999C907.787,234.874,910.504,238.156,910.504,242.005z"/>
		<path fill="#FFEEDE" d="M924.883,263.288c1.358,9.283,8.151,13.812,17.66,13.812c6.227,0,11.547-1.925,17.32-5.207l-0.792,8.942
			c-5.095,3.17-11.321,4.642-17.999,4.642c-15.736,0-26.377-10.188-26.377-25.132c0-13.698,9.396-25.471,24.226-25.471
			c15.056,0,22.98,10.755,22.98,23.207c0,1.812-0.227,3.735-0.452,5.207H924.883z M924.883,256.042h27.283
			c-0.453-7.811-5.207-13.131-13.472-13.131C932.129,242.912,926.128,247.212,924.883,256.042z"/>
		<path fill="#FFEEDE" d="M980.467,263.288c1.358,9.283,8.15,13.812,17.66,13.812c6.227,0,11.547-1.925,17.32-5.207l-0.793,8.942
			c-5.094,3.17-11.32,4.642-17.999,4.642c-15.735,0-26.377-10.188-26.377-25.132c0-13.698,9.396-25.471,24.226-25.471
			c15.057,0,22.98,10.755,22.98,23.207c0,1.812-0.227,3.735-0.452,5.207H980.467z M980.467,256.042h27.282
			c-0.452-7.811-5.207-13.131-13.472-13.131C987.712,242.912,981.712,247.212,980.467,256.042z"/>
	</g>
</g>
<g>
	<polygon fill="#649B7A" points="174.261,401.074 278.185,401.074 268.39,320.074 184.056,320.074 	"/>
	<polygon fill="#649B7A" points="132.056,327.074 191.39,365.488 191.39,348.407 142.723,327.074 	"/>
	<path fill="#008C7B" d="M339.662,329.902c55.88,0,101.179-45.299,101.179-101.178c0-55.879-45.299-101.178-101.179-101.178
		c-1.896,0-3.778,0.057-5.648,0.16c-6.486-49.623-48.925-87.939-100.316-87.939c-46.101,0-84.996,30.835-97.198,73.004
		c-7.169-2.289-14.807-3.528-22.734-3.528c-41.248,0-74.687,33.438-74.687,74.687c0,8.06,1.281,15.819,3.644,23.091
		C17.871,215.505,0,239.052,0,266.775c0,34.865,28.264,63.127,63.128,63.127H339.662z"/>
</g>
</svg>
