<?xml version="1.0" encoding="utf-8"?>
<!-- Generator: Adobe Illustrator 27.6.0, SVG Export Plug-In . SVG Version: 6.00 Build 0)  -->
<svg version="1.1" id="Layer_1" xmlns="http://www.w3.org/2000/svg" xmlns:xlink="http://www.w3.org/1999/xlink" x="0px" y="0px"
	 viewBox="0 0 36.8 36" style="enable-background:new 0 0 36.8 36;" xml:space="preserve">
<style type="text/css">
	.st0{fill-rule:evenodd;clip-rule:evenodd;}
</style>
<path class="st0" d="M20.2,0.3l-0.7,9.1c-0.4,0-0.7-0.1-1.1-0.1c-0.5,0-0.9,0-1.3,0.1L16.7,5c0-0.1,0.1-0.3,0.2-0.3h0.8l-0.4-4.5
	c0-0.1,0.1-0.3,0.2-0.3H20C20.1,0,20.2,0.1,20.2,0.3L20.2,0.3L20.2,0.3z M14,0.7c0-0.1-0.2-0.2-0.3-0.2l-2.3,0.8
	c-0.1,0-0.2,0.2-0.1,0.3l1.9,4.1l-0.7,0.3c-0.1,0.1-0.2,0.2-0.1,0.3l1.9,4c0.7-0.4,1.4-0.7,2.2-0.9L14,0.7L14,0.7z M8.4,3.2l5.3,7.5
	c-0.7,0.4-1.3,1-1.8,1.6L8.7,9.2c-0.1-0.1-0.1-0.3,0-0.4l0.6-0.5L6.2,5.1C6.1,5,6.1,4.9,6.2,4.8l1.9-1.6C8.2,3.1,8.3,3.1,8.4,3.2
	L8.4,3.2z M4,7.6c-0.1-0.1-0.3,0-0.3,0.1L2.4,9.8c-0.1,0.1,0,0.3,0.1,0.3L6.6,12l-0.4,0.6c-0.1,0.1,0,0.3,0.1,0.3l4,1.9
	c0.3-0.8,0.7-1.4,1.2-2.1L4,7.6z M1,13.3c0-0.1,0.2-0.2,0.3-0.2l8.9,2.3c-0.2,0.8-0.4,1.5-0.4,2.4l-4.4-0.4c-0.1,0-0.2-0.1-0.2-0.3
	l0.1-0.7L0.8,16c-0.1,0-0.2-0.1-0.2-0.3L1,13.3L1,13.3L1,13.3z M0.6,19.3c-0.1,0-0.2,0.1-0.2,0.3L0.9,22c0,0.1,0.2,0.2,0.3,0.2
	l4.3-1.1l0.1,0.7c0,0.1,0.2,0.2,0.3,0.2l4.3-1.2c-0.2-0.7-0.4-1.5-0.4-2.3L0.6,19.3L0.6,19.3z M2.1,25.6c-0.1-0.1,0-0.3,0.1-0.3
	l8.3-3.9c0.3,0.7,0.7,1.4,1.2,2L8,26c-0.1,0.1-0.3,0-0.3-0.1l-0.4-0.7l-3.7,2.5c-0.1,0.1-0.3,0-0.3-0.1L2.1,25.6L2.1,25.6z
	 M12.1,23.9l-6.4,6.5c-0.1,0.1-0.1,0.3,0,0.4l1.9,1.6c0.1,0.1,0.3,0.1,0.3,0l2.6-3.7l0.6,0.5c0.1,0.1,0.3,0.1,0.4,0l2.5-3.7
	C13.3,25,12.6,24.5,12.1,23.9L12.1,23.9z M10.8,34.4c-0.1,0-0.2-0.2-0.1-0.3l3.8-8.3c0.7,0.4,1.5,0.6,2.2,0.8l-1.1,4.3
	c0,0.1-0.2,0.2-0.3,0.2l-0.7-0.3l-1.2,4.3c0,0.1-0.2,0.2-0.3,0.2L10.8,34.4L10.8,34.4L10.8,34.4z M17.4,26.6l-0.7,9.1
	c0,0.1,0.1,0.3,0.2,0.3h2.5c0.1,0,0.2-0.1,0.2-0.3l-0.4-4.5h0.8c0.1,0,0.2-0.1,0.2-0.3l-0.4-4.4c-0.4,0.1-0.9,0.1-1.3,0.1
	C18.1,26.7,17.7,26.7,17.4,26.6L17.4,26.6z M26.2,1.9c0.1-0.1,0-0.3-0.1-0.3l-2.3-0.8c-0.1-0.1-0.3,0-0.3,0.2l-1.2,4.3L21.5,5
	c-0.1-0.1-0.3,0-0.3,0.2l-1.1,4.3c0.8,0.2,1.5,0.4,2.2,0.8L26.2,1.9L26.2,1.9z M31.2,5.6l-6.4,6.5c-0.5-0.6-1.2-1.1-1.9-1.5l2.5-3.7
	c0.1-0.1,0.2-0.1,0.4-0.1l0.6,0.5L29,3.7c0.1-0.1,0.2-0.1,0.3,0l1.9,1.6C31.3,5.3,31.3,5.5,31.2,5.6L31.2,5.6z M34.7,10.7
	c0.1-0.1,0.2-0.2,0.1-0.3l-1.2-2.1c-0.1-0.1-0.2-0.1-0.3-0.1l-3.7,2.6l-0.4-0.6c-0.1-0.1-0.2-0.2-0.3-0.1l-3.6,2.6
	c0.5,0.6,0.9,1.3,1.2,2.1L34.7,10.7L34.7,10.7z M36,14l0.4,2.4c0,0.1-0.1,0.3-0.2,0.3l-9.1,0.9c0-0.8-0.2-1.6-0.5-2.3l4.3-1.2
	c0.1,0,0.3,0.1,0.3,0.2l0.1,0.7l4.3-1.1C35.8,13.8,35.9,13.9,36,14L36,14L36,14z M35.6,22.9c0.1,0,0.3,0,0.3-0.2l0.4-2.4
	c0-0.1-0.1-0.3-0.2-0.3l-4.5-0.4l0.1-0.7c0-0.1-0.1-0.3-0.2-0.3l-4.4-0.4c0,0.8-0.1,1.6-0.4,2.4L35.6,22.9L35.6,22.9L35.6,22.9z
	 M33.2,28.4c-0.1,0.1-0.2,0.1-0.3,0.1l-7.5-5.2c0.5-0.6,0.9-1.3,1.2-2.1l4,1.9c0.1,0.1,0.2,0.2,0.1,0.3L30.3,24l4.1,1.9
	c0.1,0.1,0.2,0.2,0.1,0.3L33.2,28.4C33.2,28.4,33.2,28.4,33.2,28.4z M23.1,25.3l5.3,7.5c0.1,0.1,0.2,0.1,0.3,0l1.9-1.6
	c0.1-0.1,0.1-0.2,0-0.4l-3.1-3.2l0.6-0.5c0.1-0.1,0.1-0.2,0-0.4l-3.2-3.1C24.4,24.3,23.8,24.9,23.1,25.3L23.1,25.3L23.1,25.3z
	 M23.1,35.5c-0.1,0-0.3,0-0.3-0.2l-2.4-8.8c0.8-0.2,1.5-0.5,2.2-0.9l1.9,4c0.1,0.1,0,0.3-0.1,0.3l-0.7,0.3l1.9,4.1
	c0.1,0.1,0,0.3-0.1,0.3L23.1,35.5L23.1,35.5L23.1,35.5z"/>
</svg>
