<?xml version="1.0" standalone="no"?>
<!DOCTYPE svg PUBLIC "-//W3C//DTD SVG 20010904//EN"
 "http://www.w3.org/TR/2001/REC-SVG-20010904/DTD/svg10.dtd">
<svg version="1.0" xmlns="http://www.w3.org/2000/svg"
 width="700.000000pt" height="700.000000pt" viewBox="0 0 700.000000 700.000000"
 preserveAspectRatio="xMidYMid meet">
<metadata>
Created by potrace 1.11, written by Peter Selinger 2001-2013
</metadata>
<g transform="translate(0.000000,700.000000) scale(0.100000,-0.100000)"
fill="#000000" stroke="none">
<path d="M575 5640 c-285 -60 -499 -273 -559 -556 -22 -100 -23 -3051 -1
-3160 53 -272 257 -488 530 -560 66 -17 135 -18 1165 -20 602 -1 1122 -5 1155
-8 246 -28 458 -180 564 -408 22 -46 46 -114 53 -151 7 -37 15 -67 18 -67 3 0
11 30 18 66 41 214 205 413 418 507 137 60 106 59 1307 59 604 1 1123 5 1153
10 156 24 307 107 416 228 70 77 114 151 152 257 l31 88 0 1575 0 1575 -31 87
c-39 108 -83 184 -152 259 -95 103 -216 176 -357 215 -67 18 -117 19 -1190 19
-616 0 -1138 -3 -1160 -6 -196 -29 -396 -165 -504 -343 -38 -64 -89 -207 -93
-261 -3 -50 -14 -52 -17 -3 -3 58 -43 176 -84 250 -47 84 -143 187 -225 242
-89 59 -173 93 -282 114 -14 3 -524 6 -1135 7 -1010 2 -1117 1 -1190 -15z
m525 -1679 c5 -265 6 -273 23 -253 33 37 116 65 190 65 55 0 79 -6 132 -32
118 -58 185 -175 185 -321 0 -148 -77 -279 -199 -338 -47 -23 -69 -27 -141
-27 -86 0 -142 18 -192 62 -16 14 -19 12 -34 -21 -10 -20 -25 -36 -33 -37 -43
-3 -81 -1 -94 4 -11 4 -13 89 -12 503 0 275 -1 505 -3 512 -3 7 -23 12 -53 12
-53 0 -51 -3 -51 75 0 14 0 36 1 49 l1 23 138 -1 137 -1 5 -274z m2745 -238
c0 -450 2 -513 15 -514 8 -1 32 -2 53 -2 l37 0 0 -74 0 -73 -140 0 -140 0 0
35 c0 19 -2 35 -5 35 -3 0 -24 -14 -47 -30 -145 -105 -360 -40 -442 135 -135
287 104 610 389 527 28 -8 62 -23 78 -34 l27 -19 0 190 0 191 -53 0 -54 0 2
73 c2 39 3 72 4 72 0 1 63 1 139 0 l137 0 0 -512z m-1843 338 c80 -90 -26
-227 -136 -175 -58 28 -81 96 -51 154 35 68 135 79 187 21z m843 -307 c48 -22
92 -75 106 -126 6 -25 12 -124 13 -233 l1 -189 50 -1 50 0 2 -72 3 -73 -191 0
-190 0 3 73 3 72 45 0 45 1 1 158 c1 88 -3 174 -9 192 -23 77 -137 79 -237 5
l-35 -26 0 -162 c0 -90 3 -163 7 -164 5 -1 25 -2 46 -2 33 -1 38 -4 42 -32 3
-16 3 -49 2 -72 l-4 -42 -184 -1 c-141 0 -184 3 -185 12 -4 54 -4 120 0 126 4
4 26 8 51 8 l45 0 3 206 2 206 -37 0 c-73 1 -69 -4 -67 70 1 37 2 69 3 72 0 3
61 5 134 5 l132 -1 3 -52 3 -52 52 39 c101 76 206 96 292 55z m1655 9 c133
-31 237 -169 233 -308 0 -11 -1 -38 -2 -61 l-1 -41 -255 1 c-250 1 -255 1
-249 -19 11 -35 47 -83 78 -101 40 -23 128 -43 169 -38 74 11 128 25 180 48
l56 24 -5 -46 c-10 -93 -13 -104 -31 -118 -67 -51 -283 -68 -390 -31 -165 58
-245 176 -239 355 2 69 8 99 28 142 76 162 242 237 428 193z m906 -4 c28 -14
54 -61 54 -96 0 -59 -65 -119 -120 -110 -21 4 -80 40 -80 49 0 28 -73 -21
-117 -78 -26 -35 -27 -40 -28 -175 -1 -76 1 -139 4 -140 4 -1 31 -2 61 -3 l55
-1 2 -72 1 -72 -201 2 -202 2 0 60 c-1 83 -1 83 56 81 l49 -2 -2 206 -3 205
-40 1 c-22 1 -45 2 -50 3 -6 1 -10 31 -10 73 l0 73 135 0 135 -1 6 -79 c3 -44
6 -75 7 -69 4 24 109 128 146 145 42 18 105 18 142 -2z m554 0 c19 -6 40 -16
46 -20 6 -5 13 -7 16 -4 3 3 24 -15 48 -41 40 -43 42 -49 37 -91 -7 -66 -35
-88 -105 -84 -33 2 -72 44 -72 79 0 37 -29 51 -101 48 -68 -3 -109 -28 -109
-66 0 -46 10 -51 240 -124 70 -22 131 -64 150 -101 19 -39 21 -119 5 -158 -18
-44 -73 -97 -125 -121 -38 -18 -63 -21 -160 -20 -83 0 -127 5 -160 18 -53 20
-118 63 -130 86 -43 81 11 172 93 156 42 -8 67 -34 74 -78 2 -18 8 -37 13 -42
11 -11 141 -21 172 -13 14 4 37 18 52 32 26 24 26 26 11 54 -13 26 -30 35
-142 71 -143 47 -188 68 -220 102 -100 107 -16 293 147 324 13 3 26 7 29 9 8
9 157 -4 191 -16z m-3940 -274 l5 -280 40 1 c22 0 45 -1 50 -3 6 -2 10 -34 10
-71 l0 -67 -194 0 -195 0 1 60 c1 33 2 65 2 71 1 5 21 9 46 9 24 -1 48 1 52 4
9 6 12 400 3 402 -3 1 -24 2 -47 3 -24 1 -45 5 -48 8 -9 9 -12 100 -4 123 6
19 15 20 140 20 l134 0 5 -280z"/>
<path d="M1209 3616 c-25 -7 -59 -22 -76 -34 -31 -22 -32 -25 -35 -110 -2 -48
-2 -117 0 -155 3 -67 3 -67 42 -87 51 -26 137 -36 183 -21 154 51 173 321 27
396 -40 21 -88 24 -141 11z"/>
<path d="M3447 3615 c-79 -27 -126 -100 -127 -196 -3 -131 71 -218 185 -219
42 0 131 36 153 62 9 12 12 55 10 164 l-3 149 -45 22 c-59 28 -125 36 -173 18z"/>
<path d="M4357 3630 c-65 -12 -122 -70 -129 -130 l-3 -24 168 -1 167 0 -4 25
c-16 99 -93 149 -199 130z"/>
</g>
</svg>
