<svg xmlns="http://www.w3.org/2000/svg" xmlns:xlink="http://www.w3.org/1999/xlink" width="148" height="124" viewBox="0 0 148 124">
    <defs>
        <path id="a" d="M0 0h98.91v65H0z"/>
    </defs>
    <g fill="none" fill-rule="evenodd">
        <g transform="translate(0 59)">
            <mask id="b" fill="#fff">
                <use xlink:href="#a"/>
            </mask>
            <path fill="#D6D4D3" d="M57.73 18.354c0-2.294 1.536-3.824 3.849-3.824 2.31 0 3.849 1.53 3.849 3.824 0 2.294-1.54 3.823-3.85 3.823-1.923 0-3.848-1.912-3.848-3.823m-4.237 16.059h-8.078c-2.31 0-3.849-1.53-3.849-3.824 0-2.294 1.54-3.824 3.849-3.824h8.078c2.313 0 3.849 1.53 3.849 3.824 0 1.912-1.925 3.824-3.849 3.824M36.948 22.177c-2.31 0-3.849-1.53-3.849-3.823 0-2.294 1.54-3.824 3.849-3.824s3.848 1.53 3.848 3.824c0 1.911-1.924 3.823-3.848 3.823m49.258-9.94c-1.535 0-3.075.381-4.23.764V3.824c0-2.294-1.543-3.823-3.848-3.823h-57.73C18.09 0 16.55 1.53 16.55 3.824v9.177c-1.54-.383-2.694-.765-4.618-.765C5.389 12.236 0 17.59 0 24.09s5.388 11.853 11.93 11.853c1.54 0 3.08-.382 4.619-.769v9.18c0 2.291 1.54 3.824 3.849 3.824h8.467v9.177h-4.234c-2.31 0-3.849 1.53-3.849 3.823 0 2.294 1.54 3.824 3.849 3.824h16.55c2.308 0 3.848-1.53 3.848-3.824 0-2.294-1.54-3.823-3.849-3.823h-4.233v-8.798h25.4v8.798h-4.233c-2.309 0-3.848 1.53-3.848 3.823 0 2.294 1.539 3.824 3.848 3.824H74.66c2.313 0 3.85-1.53 3.85-3.824 0-2.294-1.537-3.823-3.85-3.823h-4.23v-8.798h8.468c2.309 0 3.848-1.526 3.848-3.824V35.56c1.536.382 2.694.764 4.234.764 6.543 0 11.93-5.353 11.93-11.853-.384-6.882-5.772-12.235-12.704-12.235" mask="url(#b)"/>
        </g>
        <path fill="#D6D4D3" d="M26.571 23.6l9.372 9.6c-3.124 2.8-5.467 6.8-6.248 11.6-3.124 0-4.685 2-4.685 4V52H74.6v-3.2c0-2-1.562-4-4.686-4-.39-4.8-2.733-8.8-5.857-11.6l9.372-9.6c1.561.8 3.514 1.2 5.466 1.2C85.533 24.8 91 19.2 91 12.4 91 5.6 85.533 0 78.895 0 72.257 0 66.79 5.6 66.79 12.4c0 2 .391 3.6 1.172 5.6L57.029 29.2c-4.686-2-9.762-2-14.448 0L31.648 18c.78-1.6 1.171-3.6 1.171-5.6 0-6.8-5.467-12.4-12.105-12.4C14.467 0 9 5.6 9 12.4c0 6.8 5.467 12.4 12.105 12.4 1.952 0 3.905-.4 5.466-1.2z"/>
        <g>
            <path stroke="#D6D4D3" stroke-width="2" d="M106.706 42.087c-4.069-8.685-1.768-19.333 6.11-25.488 9.157-7.154 22.378-5.53 29.532 3.626 7.153 9.156 5.53 22.377-3.626 29.53-7.616 5.951-18.045 5.829-25.455.35l-11.479 2.322 4.918-10.34z"/>
            <text fill="#CDCCCA" font-family="Rubik-Medium, Rubik" font-size="18" font-weight="400" transform="translate(88 3)">
                <tspan x="26.538" y="36">no</tspan>
            </text>
        </g>
    </g>
</svg>
