<svg xmlns="http://www.w3.org/2000/svg" xmlns:xlink="http://www.w3.org/1999/xlink" width="99" height="124" viewBox="0 0 99 124">
    <defs>
        <path id="a" d="M0 0h98.91v65H0z"/>
    </defs>
    <g fill="none" fill-rule="evenodd">
        <g transform="translate(0 59)">
            <mask id="b" fill="#fff">
                <use xlink:href="#a"/>
            </mask>
            <path fill="#D6D4D3" d="M65.5 29c.828 0 1.5-1.12 1.5-2.5s-.672-2.5-1.5-2.5-1.5 1.12-1.5 2.5.672 2.5 1.5 2.5zm-3.921-14.47c2.31 0 3.849 1.53 3.849 3.824 0 2.294-1.54 3.823-3.85 3.823-1.923 0-3.848-1.912-3.848-3.823 0-2.294 1.536-3.824 3.849-3.824zm-8.086 19.883h-8.078c-2.31 0-4.425 2.294-4.425 0 0-2.295 2.115-7.648 4.425-7.648h8.078c2.313 0 4.565 5.353 4.565 7.648 0 1.911-2.64 0-4.565 0M36.948 22.177c-2.31 0-3.849-1.53-3.849-3.823 0-2.294 1.54-3.824 3.849-3.824s3.848 1.53 3.848 3.824c0 1.911-1.924 3.823-3.848 3.823m49.258-9.94c-1.535 0-3.075.381-4.23.764V3.824c0-2.294-1.543-3.823-3.848-3.823h-57.73C18.09 0 16.55 1.53 16.55 3.824v9.177c-1.54-.383-2.694-.765-4.618-.765C5.389 12.236 0 17.59 0 24.09s5.388 11.853 11.93 11.853c1.54 0 3.08-.382 4.619-.769v9.18c0 2.291 1.54 3.824 3.849 3.824h8.467v9.177h-4.234c-2.31 0-3.849 1.53-3.849 3.823 0 2.294 1.54 3.824 3.849 3.824h16.55c2.308 0 3.848-1.53 3.848-3.824 0-2.294-1.54-3.823-3.849-3.823h-4.233v-8.798h25.4v8.798h-4.233c-2.309 0-3.848 1.53-3.848 3.823 0 2.294 1.539 3.824 3.848 3.824H74.66c2.313 0 3.85-1.53 3.85-3.824 0-2.294-1.537-3.823-3.85-3.823h-4.23v-8.798h8.468c2.309 0 3.848-1.526 3.848-3.824V35.56c1.536.382 2.694.764 4.234.764 6.543 0 11.93-5.353 11.93-11.853-.384-6.882-5.772-12.235-12.704-12.235" mask="url(#b)"/>
        </g>
        <path fill="#D6D4D3" d="M26.571 23.6l9.372 9.6c-3.124 2.8-5.467 6.8-6.248 11.6-3.124 0-4.685 2-4.685 4V52H74.6v-3.2c0-2-1.562-4-4.686-4-.39-4.8-2.733-8.8-5.857-11.6l9.372-9.6c1.561.8 3.514 1.2 5.466 1.2C85.533 24.8 91 19.2 91 12.4 91 5.6 85.533 0 78.895 0 72.257 0 66.79 5.6 66.79 12.4c0 2 .391 3.6 1.172 5.6L57.029 29.2c-4.686-2-9.762-2-14.448 0L31.648 18c.78-1.6 1.171-3.6 1.171-5.6 0-6.8-5.467-12.4-12.105-12.4C14.467 0 9 5.6 9 12.4c0 6.8 5.467 12.4 12.105 12.4 1.952 0 3.905-.4 5.466-1.2z"/>
    </g>
</svg>
