<?xml version="1.0" encoding="UTF-8"?>
<svg width="64px" height="71px" viewBox="0 0 64 71" version="1.1" xmlns="http://www.w3.org/2000/svg" xmlns:xlink="http://www.w3.org/1999/xlink">
    <title>Manual To</title>
    <desc>Manual To Logo</desc>
    <defs>
        <path d="M59.980937,60.9533932 C59.9276593,61.0313821 59.8507753,61.1126438 59.7502853,61.1971783 C58.1963775,62.5038943 53.4812126,65.5388311 45.6042987,70.3019888 L46.8037863,63.4780476 L9.88712527,63.4780476 C4.4266125,63.4780476 0,59.0374203 0,53.5596006 L0,9.91844699 C0,4.44064376 4.4266125,0 9.88712527,0 L53.3905584,0 C58.8509565,0 63.2776017,4.44064376 63.2776017,9.91844699 L63.2776017,53.5596006 C63.2776017,56.4976023 62.004181,59.1372335 59.980937,60.9533932 Z" id="path-1"></path>
        <path d="M31.1935626,0.126505727 C34.1303974,0.126505727 36.7855977,1.09144905 38.4262253,2.74294743 C40.797496,5.12987959 41.6469896,7.91734743 41.6469896,11.1592787 L41.6469896,30.1003207 L34.3002306,30.1003207 L34.3002306,12.1829686 C34.3002306,8.14452159 31.7566677,6.78137797 29.4411337,6.78137797 C27.1815659,6.78137797 24.5239067,8.14452159 24.5239067,12.014393 L24.5239067,30.1003207 L17.1795246,30.1003207 L17.1795246,12.1829686 C17.1795246,8.14452159 14.6359454,6.78137797 12.3205261,6.78137797 C10.0026479,6.78137797 7.40316793,8.14452159 7.40316793,12.1829686 L7.40316793,30.1003207 L0.0563596878,30.1003207 L0.0563596878,0.466123935 L7.23323643,0.466123935 L7.23323643,3.19739442 C9.15554767,1.20634361 11.8665831,0.126505727 14.5800283,0.126505727 C17.8566933,0.126505727 20.5119592,1.32123818 22.3783534,3.8790649 C24.8636877,1.26247518 27.5190356,0.126505727 31.1935626,0.126505727 Z" id="path-3"></path>
    </defs>
    <g id="Page-1" stroke="none" stroke-width="1" fill="none" fill-rule="evenodd">
        <g id="Group">
            <g id="Group-3" transform="translate(0.146663, -0.000000)">
                <mask id="mask-2" fill="white">
                    <use xlink:href="#path-1"></use>
                </mask>
                <g id="Clip-2"></g>
                <polygon id="Fill-1" fill="#FFCC00" mask="url(#mask-2)" points="-0.819658054 71.124309 64.0972598 71.124309 64.0972598 -0.822320117 -0.819658054 -0.822320117"></polygon>
            </g>
            <g id="Group-6" transform="translate(10.966149, 16.610866)">
                <mask id="mask-4" fill="white">
                    <use xlink:href="#path-3"></use>
                </mask>
                <g id="Clip-5"></g>
                <polygon id="Fill-4" fill="#000000" mask="url(#mask-4)" points="-0.763298366 30.9226408 42.4667133 30.9226408 42.4667133 -0.695814391 -0.763298366 -0.695814391"></polygon>
            </g>
        </g>
    </g>
</svg>