<?xml version="1.0" encoding="UTF-8"?>
<svg width="3081px" height="622px" viewBox="0 0 3081 622" version="1.1" xmlns="http://www.w3.org/2000/svg" xmlns:xlink="http://www.w3.org/1999/xlink">
    <!-- Generator: Sketch 52.5 (67469) - http://www.bohemiancoding.com/sketch -->
    <title>Rectangle</title>
    <desc>Created with Sketch.</desc>
    <g id="Page-1" stroke="none" stroke-width="1" fill="none" fill-rule="evenodd">
        <g id="Rectangle">
            <rect fill-opacity="0.01" fill="#FFFFFF" x="0" y="0" width="3081" height="622"></rect>
            <path d="M540.325365,546.636637 C539.89424,547.265686 539.272012,547.921129 538.458683,548.602966 C525.886422,559.142645 487.733527,583.621768 424,622.040337 L433.705096,567 L135,567 C90.81722,567 55,531.18278 55,487 L55,135 C55,90.81722 90.81722,55 135,55 L487,55 C531.18278,55 567,90.81722 567,135 L567,487 C567,510.697173 556.69664,531.987867 540.325365,546.636637 Z" id="Combined-Shape" fill="#F8BE4F"></path>
            <path d="M400.940812,190 C371.20904,190 349.724419,199.16248 329.614684,220.26724 C314.513137,199.636388 293.028516,190 266.515873,190 C244.560519,190 222.624608,198.709657 207.070592,214.769122 L207.070592,192.739207 L149,192.739207 L149,431.762147 L208.445477,431.762147 L208.445477,287.2447 C208.445477,254.671568 229.478807,243.67671 248.233492,243.67671 C266.968342,243.67671 287.549203,254.671568 287.549203,287.2447 L287.549203,431.762147 L346.975041,431.762147 L346.975041,285.885048 C346.975041,254.671568 368.479104,243.67671 386.761681,243.67671 C405.498102,243.67671 426.07857,254.671568 426.07857,287.2447 L426.07857,431.762147 L485.524048,431.762147 L485.524048,278.987866 C485.524048,252.83919 478.650407,230.356058 459.463873,211.103578 C446.188699,197.782926 424.704078,190 400.940812,190" id="Fill-72" fill="#000000"></path>
            <path d="M2356.10931,431.907407 L2423.43246,431.907407 L2423.43246,107 L2356.10931,107 L2356.10931,431.907407 Z M2671.49548,127.37037 L2604.41962,127.37037 L2604.41962,197.881022 L2576.43962,197.881022 L2576.43962,245.173662 L2604.41962,245.173662 L2604.41962,353.795854 C2604.41962,379.484964 2612.33949,399.778092 2628.17953,414.672675 C2644.01942,429.567106 2663.42286,437 2686.37228,437 C2709.32138,437 2731.15557,427.668442 2751.88783,408.974118 L2727.01193,362.99203 C2718.4187,374.087776 2707.91504,379.635724 2695.48473,379.635724 C2688.95576,379.635724 2683.32934,377.072964 2678.605,371.961916 C2673.86537,366.86685 2671.49548,359.781607 2671.49548,350.720059 L2671.49548,245.173662 L2729.22892,245.173662 L2729.22892,197.881022 L2671.49548,197.881022 L2671.49548,127.37037 Z M2885.51446,191.537037 C2849.198,191.537037 2819.04926,203.412524 2795.03794,227.147208 C2771.02678,250.881891 2759.02816,279.99094 2759.02816,314.489577 C2759.02816,348.988366 2771.02678,378.036669 2795.03794,401.619109 C2819.04926,425.216773 2849.198,437 2885.51446,437 C2921.81471,437 2951.97891,425.216773 2975.97476,401.619109 C2999.98593,378.036669 3012,348.988366 3012,314.489577 C3012,279.99094 2999.98593,250.881891 2975.97476,227.147208 C2951.97891,203.412524 2921.81471,191.537037 2885.51446,191.537037 Z M2886.03204,379.962963 C2868.89754,379.962963 2854.83323,373.928936 2843.85514,361.861183 C2832.87598,349.808889 2827.37136,334.184239 2827.37136,314.987682 C2827.37136,295.805385 2832.87598,280.105838 2843.85514,267.903152 C2854.83323,255.700915 2868.89754,249.592593 2886.03204,249.592593 C2903.16564,249.592593 2917.21483,255.700915 2928.20804,267.903152 C2939.18735,280.105838 2944.67685,295.805385 2944.67685,314.987682 C2944.67685,334.184239 2939.18735,349.808889 2928.20804,361.861183 C2917.21483,373.928936 2903.16564,379.962963 2886.03204,379.962963 Z M2207.80368,191.537037 C2167.65101,191.537037 2131.93403,202.894438 2100.63796,225.59371 L2130.31771,268.496672 C2139.17462,261.721967 2150.0134,256.043267 2162.86348,251.476099 C2175.69953,246.907867 2187.87963,244.608983 2199.40378,244.608983 C2226.26385,244.608983 2239.69381,257.291667 2239.69381,282.654752 L2239.69381,283.980188 L2190.09016,283.980188 C2159.38815,283.980188 2135.18115,290.023818 2117.46733,302.112294 C2099.75381,314.200618 2090.8969,332.408693 2090.8969,356.736671 C2090.8969,381.050339 2099.46417,400.522952 2116.58302,415.107773 C2133.70187,429.70797 2154.89117,437 2180.13553,437 C2205.37928,437 2226.55318,426.252184 2243.68712,404.724125 L2243.68712,433.468092 L2306.12697,433.468092 L2306.12697,281.772499 C2306.12697,250.516658 2296.96533,227.66438 2278.673,213.216275 C2260.3642,198.768321 2236.73617,191.537037 2207.80368,191.537037 Z M2193.45008,385.055556 C2181.46943,385.055556 2172.27174,382.698318 2165.82532,377.982585 C2159.39528,373.267952 2156.17995,366.495 2156.17995,357.662469 C2156.17995,340.625891 2169.64414,332.092593 2196.58734,332.092593 L2238.80382,332.092593 L2238.80382,343.973549 C2238.80382,356.452183 2234.2447,366.415634 2225.10776,373.865473 C2215.97298,381.330243 2205.41434,385.055556 2193.45008,385.055556 Z M1689.32949,191.537037 C1664.26698,191.537037 1641.7301,201.656607 1621.68871,221.864888 L1621.68871,195.500703 L1555.37184,195.500703 L1555.37184,431.907407 L1621.68871,431.907407 L1621.68871,300.083152 C1621.68871,281.628751 1626.61882,267.636727 1636.49518,258.12281 C1646.37124,248.592859 1657.93611,243.828564 1671.20579,243.828564 C1698.01889,243.828564 1711.42522,261.994659 1711.42522,298.32806 L1711.42522,431.907407 L1777.74224,431.907407 L1777.74224,288.208793 C1777.74224,258.924649 1769.26679,235.478304 1752.31376,217.902433 C1735.36179,200.325502 1714.37784,191.537037 1689.32949,191.537037 Z M1405.02593,191.537037 C1364.87275,191.537037 1329.1559,202.894438 1297.85968,225.59371 L1327.54049,268.496672 C1336.39745,261.721967 1347.23521,256.043267 1360.08642,251.476099 C1372.92147,246.907867 1385.10163,244.608983 1396.61075,244.608983 C1423.48604,244.608983 1436.91606,257.291667 1436.91606,282.654752 L1436.91606,283.980188 L1387.31202,283.980188 C1356.61093,283.980188 1332.40289,290.023818 1314.68928,302.112294 C1296.97537,314.200618 1288.11933,332.408693 1288.11933,356.736671 C1288.11933,381.050339 1296.68604,400.522952 1313.80482,415.107773 C1330.92467,429.70797 1352.11393,437 1377.35764,437 C1402.60212,437 1423.77629,426.252184 1440.91047,404.724125 L1440.91047,433.468092 L1503.3494,433.468092 L1503.3494,281.772499 C1503.3494,250.516658 1494.18802,227.66438 1475.89545,213.216275 C1457.57238,198.768321 1433.95932,191.537037 1405.02593,191.537037 Z M1390.67203,385.055556 C1378.69169,385.055556 1369.49412,382.698318 1363.04886,377.982585 C1356.61783,373.267952 1353.40239,366.495 1353.40239,357.662469 C1353.40239,340.625891 1366.8667,332.092593 1393.81033,332.092593 L1436.02625,332.092593 L1436.02625,343.973549 C1436.02625,356.452183 1431.46611,366.415634 1422.33053,373.865473 C1413.19479,381.330243 1402.63613,385.055556 1390.67203,385.055556 Z M1156.86151,191.537037 C1141.20901,191.537037 1125.61784,195.500703 1110.11805,203.411547 C1094.60301,211.322542 1082.26112,222.455263 1073.10794,236.810165 C1066.89939,224.209447 1057.66917,213.515688 1045.40371,204.727374 C1033.13917,195.93906 1019.48454,191.537037 1004.41236,191.537037 C980.766412,191.537037 959.804983,201.807717 941.483375,222.304153 L941.483375,195.500703 L875,195.500703 L875,431.907407 L941.483375,431.907407 L941.483375,304.468687 C941.483375,286.015496 946.425867,272.038447 956.326718,262.509403 C966.227874,252.994579 977.608361,248.230284 990.454143,248.230284 C1003.31411,248.230284 1012.61969,252.616727 1018.37088,261.405192 C1024.13824,270.193657 1027.02093,283.97331 1027.02093,302.714805 L1027.02093,431.907407 L1093.93237,431.907407 L1093.93237,304.468687 C1093.93237,286.015496 1098.81369,272.038447 1108.56245,262.509403 C1118.31105,252.994579 1129.82853,248.230284 1143.13152,248.230284 C1170.01195,248.230284 1183.46749,266.396379 1183.46749,302.714805 L1183.46749,431.907407 L1250.37757,431.907407 L1250.37757,288.208793 C1250.37757,256.867487 1241.80349,232.92213 1224.67181,216.373932 C1207.54029,199.825733 1184.93157,191.537037 1156.86151,191.537037 Z M2048.05489,196.62963 L1981.43911,196.62963 L1981.43911,324.293427 C1981.43911,342.494091 1976.57918,356.376534 1966.87362,365.908476 C1957.16805,375.441328 1945.70125,380.214649 1932.45698,380.214649 C1905.69536,380.214649 1892.31455,362.014136 1892.31455,325.626902 L1892.31455,196.62963 L1825.68449,196.62963 L1825.68449,340.145242 C1825.68449,372.137572 1834.50792,396.27939 1852.15677,412.570392 C1869.80562,428.862 1891.64688,437 1917.67901,437 C1943.71145,437 1964.95975,425.422002 1981.43911,402.219937 L1981.43911,433.484228 L2048.05489,433.484228 L2048.05489,196.62963 Z M2510.14455,359.592593 C2499.27316,359.592593 2490.10023,363.33172 2482.60983,370.810882 C2475.11944,378.289136 2471.3747,387.464364 2471.3747,398.303563 C2471.3747,409.158659 2475.11944,418.317839 2482.60983,425.797001 C2490.10023,433.260873 2499.27316,437 2510.14455,437 C2521.00002,437 2530.17281,433.260873 2537.6632,425.797001 C2545.15359,418.317839 2548.89833,409.158659 2548.89833,398.303563 C2548.89833,387.464364 2545.15359,378.289136 2537.6632,370.810882 C2530.17281,363.33172 2521.00002,359.592593 2510.14455,359.592593 Z" id="Fill-55-Copy-4" fill="#000000"></path>
        </g>
    </g>
</svg>