<svg xmlns:svg="http://www.w3.org/2000/svg" xmlns="http://www.w3.org/2000/svg" version="1.1"
   width="100" height="100" viewBox="0 0 100 100" xml:space="preserve">
    <path
     d="M 50,0 C 22.385714,0 0,22.387302 0,50 0,77.612698 22.385714,100 50,100 77.612698,100 100,77.612698 100,50 100,22.387302 77.612698,0 50,0 z M 79.231746,48.412698 H 71.912698 C 72.187302,50 72.08254,49.919048 72.08254,50.48254 v 21.807936 c 0,1.707937 -1.196826,3.106349 -2.904762,3.106349 H 66.57619 62.288889 56.846032 c -0.855556,0 -2.22381,-0.7 -2.22381,-1.555555 V 61.515873 c 0,-0.855556 -0.03333,-1.992063 -0.890476,-1.992063 H 45.3 c -0.855556,0 -1.788889,1.136507 -1.788889,1.992063 V 73.84127 c 0,0.855555 -0.466667,1.555555 -1.322222,1.555555 h -5.052381 -2.08254 -5.325397 c -1.709523,0 -3.677777,-1.398412 -3.677777,-3.106349 V 60.068254 50.48254 48.412698 h -6.438096 c -2.171428,0 -2.942857,-0.620635 -1.361904,-2.133333 l 7.8,-7.385714 V 27.095238 c 0,-0.725397 1.163492,-0.904762 1.888888,-0.904762 h 7.480953 c 0.725397,0 1.74127,0.179365 1.74127,0.904762 v 2.228572 l 9.601587,-9.284128 c 0.138095,-0.131746 0.0746,-0.257142 0.225397,-0.365079 l 1.793651,-1.74127 c 0.352381,-0.338095 0.926984,-0.382539 1.279365,-0.04603 l 1.822222,1.671428 c 0.142857,0.103175 0.279365,0.05873 0.409524,0.180952 L 80.309524,46.28254 c 1.579365,1.512698 1.093651,2.130158 -1.077778,2.130158 z"
     fill="#5c5650" />
    <path
     d="M 80.311111,46.28254 52.295238,19.739682 C 52.165079,19.61746 52.028571,19.661905 51.885714,19.55873 l -1.822222,-1.671428 c -0.352381,-0.336508 -0.926984,-0.292064 -1.279365,0.04603 l -1.793651,1.74127 c -0.150793,0.107937 -0.0873,0.233333 -0.225397,0.36508 l -9.603174,9.285714 v -2.230159 c 0,-0.725397 -1.015873,-0.904762 -1.74127,-0.904762 h -7.480953 c -0.725396,0 -1.888888,0.179365 -1.888888,0.904762 V 38.89365 l -7.8,7.385714 c -1.579365,1.512698 -0.809524,2.133333 1.361904,2.133333 h 6.438096 v 2.069842 9.585714 12.222222 c 0,1.707937 1.968254,3.106349 3.67619,3.106349 h 5.325397 2.08254 5.052381 c 0.857142,0 1.323809,-0.7 1.323809,-1.555555 V 61.515873 c 0,-0.855556 0.933333,-1.992063 1.790476,-1.992063 h 8.431746 c 0.855556,0 0.888889,1.136507 0.888889,1.992063 V 73.84127 c 0,0.855555 1.368254,1.555555 2.22381,1.555555 h 5.442857 4.287301 2.601588 c 1.707936,0 2.904762,-1.398412 2.904762,-3.106349 V 50.48254 c 0,-0.563492 0.104762,-0.48254 -0.169842,-2.069842 h 7.319048 c 2.171429,0 2.657143,-0.61746 1.079365,-2.130158 z"
     fill="#ffffff" />
</svg>
