<?xml version="1.0" encoding="UTF-8"?>
<svg width="17px" height="17px" viewBox="0 0 17 17" version="1.1" xmlns="http://www.w3.org/2000/svg" xmlns:xlink="http://www.w3.org/1999/xlink">
    <!-- Generator: Sketch 47.1 (45422) - http://www.bohemiancoding.com/sketch -->
    <title>house </title>
    <desc>Created with Sketch.</desc>
    <defs></defs>
    <g id="Page-1" stroke="none" stroke-width="1" fill="none" fill-rule="evenodd">
        <g id="Reader-mockup" transform="translate(-1050.000000, -28.000000)" fill="#646666">
            <g id="home" transform="translate(1037.000000, 16.000000)">
                <path d="M21.8801,12.6218 C21.6671,12.4608 21.3721,12.4598 21.1581,12.6188 L13.7061,18.2608 C13.5551,18.3738 13.4651,18.5528 13.4651,18.7428 L13.4651,27.8988 C13.4651,28.2308 13.7331,28.4998 14.0661,28.4998 L19.1361,28.4998 L19.1361,22.7088 C19.1361,22.3768 19.4041,22.1078 19.7361,22.1078 L23.3041,22.1078 C23.6361,22.1078 23.9041,22.3768 23.9041,22.7088 L23.9041,28.4998 L28.9341,28.4998 C29.2661,28.4998 29.5351,28.2308 29.5351,27.8988 L29.5351,18.7798 C29.5351,18.5918 29.4461,18.4138 29.2961,18.3008 L21.8801,12.6218 Z" id="house-"></path>
            </g>
        </g>
    </g>
</svg>