<?xml version="1.0" encoding="UTF-8"?>
<svg width="2976px" height="2976px" viewBox="0 0 2976 2976" version="1.1" xmlns="http://www.w3.org/2000/svg" xmlns:xlink="http://www.w3.org/1999/xlink">
    <!-- Generator: Sketch 52.6 (67491) - http://www.bohemiancoding.com/sketch -->
    <title>Group 68</title>
    <desc>Created with Sketch.</desc>
    <g id="Page-1" stroke="none" stroke-width="1" fill="none" fill-rule="evenodd">
        <g id="Group-68" transform="translate(1.000000, 1.000000)">
            <path d="M1487,2974 C665.752577,2974 0,2308.24742 0,1487 C0,665.752577 665.752577,0 1487,0 C2308.24742,0 2974,665.752577 2974,1487 C2974,2308.24742 2308.24742,2974 1487,2974 Z M2217,1530.30127 C2250.33333,1511.05626 2250.33333,1462.94374 2217,1443.69873 L1159.5,833.15082 C1126.16667,813.905811 1084.5,837.962072 1084.5,876.45209 L1084.5,2097.54791 C1084.5,2136.03793 1126.16667,2160.09419 1159.5,2140.84918 L2217,1530.30127 Z" id="Shape-Copy-24" stroke="#979797" fill-opacity="0.66" fill="#FFFFFF"></path>
            <path d="M2217.5,1529.92377 L1160,2140.47168 C1126.66667,2159.71669 1085,2135.66043 1085,2097.17041 L1085,876.074595 C1085,837.584577 1126.66667,813.528315 1160,832.773324 L2217.5,1443.32123 C2250.83333,1462.56624 2250.83333,1510.67877 2217.5,1529.92377 Z" id="Polygon-Copy" fill-opacity="0.5" fill="#000000" fill-rule="nonzero"></path>
        </g>
    </g>
</svg>