<?xml version="1.0" standalone="no"?>
<!DOCTYPE svg PUBLIC "-//W3C//DTD SVG 20010904//EN"
 "http://www.w3.org/TR/2001/REC-SVG-20010904/DTD/svg10.dtd">
<svg version="1.0" xmlns="http://www.w3.org/2000/svg"
 width="700.000000pt" height="700.000000pt" viewBox="0 0 700.000000 700.000000"
 preserveAspectRatio="xMidYMid meet">
<metadata>
Created by potrace 1.11, written by Peter Selinger 2001-2013
</metadata>
<g transform="translate(0.000000,700.000000) scale(0.100000,-0.100000)"
fill="#000000" stroke="none">
<path d="M2050 6491 c-145 -46 -264 -167 -316 -321 -18 -53 -19 -146 -19
-2670 0 -2524 1 -2617 19 -2670 53 -157 172 -276 320 -321 58 -18 128 -19
1446 -19 1318 0 1388 1 1446 19 148 45 267 164 320 321 18 53 19 146 19 2670
0 2524 -1 2617 -19 2670 -53 157 -172 276 -320 321 -58 18 -127 19 -1451 18
-1293 -1 -1394 -2 -1445 -18z m2820 -2856 l0 -2465 -1370 0 -1370 0 0 2465 0
2465 1370 0 1370 0 0 -2465z"/>
<path d="M3102 4719 c-58 -11 -145 -52 -192 -89 -21 -16 -41 -30 -44 -30 -3 0
-6 25 -6 55 l0 55 -160 0 -160 0 0 -670 0 -670 165 0 164 0 3 443 c3 423 4
444 24 487 62 135 240 169 352 66 58 -52 57 -43 62 -536 l5 -455 168 -3 167
-2 0 427 c0 274 4 442 11 468 27 102 105 159 214 158 92 -1 149 -34 191 -113
18 -32 19 -70 24 -485 l5 -450 168 -3 168 -2 -3 492 c-3 486 -3 494 -26 557
-59 163 -169 262 -331 297 -176 37 -350 -4 -468 -110 l-50 -45 -47 48 c-98 99
-250 141 -404 110z"/>
<path d="M2486 2968 c-13 -19 -14 -25 -2 -43 13 -20 18 -20 1013 -23 985 -2
1000 -2 1018 18 17 18 17 21 1 45 l-16 25 -1000 0 -999 0 -15 -22z"/>
<path d="M2486 2648 c-13 -19 -14 -25 -2 -43 13 -20 18 -20 1014 -23 l1001 -2
17 25 c16 24 16 27 -1 45 -18 20 -35 20 -1016 20 l-998 0 -15 -22z"/>
<path d="M2486 2334 c-21 -20 -20 -30 4 -54 20 -20 33 -20 1010 -20 977 0 990
0 1010 20 24 24 25 34 4 54 -14 14 -120 16 -1014 16 -894 0 -1000 -2 -1014
-16z"/>
<path d="M2480 2010 c-8 -14 -8 -26 0 -40 11 -20 21 -20 1020 -20 999 0 1009
0 1020 20 8 14 8 26 0 40 -11 20 -21 20 -1020 20 -999 0 -1009 0 -1020 -20z"/>
<path d="M2504 1710 c-27 -11 -37 -36 -24 -61 10 -18 28 -19 599 -19 509 0
590 2 601 15 17 21 4 61 -22 69 -36 9 -1130 6 -1154 -4z"/>
</g>
</svg>
