<svg xmlns="http://www.w3.org/2000/svg" width="16" height="16" viewBox="0 0 16 16">
    <g fill="#FFF" fill-rule="evenodd">
        <path d="M5.567 1.384l.866-.5 1 1.732-.866.5zM5.567 14.616l.866.5 1-1.732-.866-.5zM11.433 1.384l-.866-.5-1 1.732.866.5zM11.433 14.616l-.866.5-1-1.732.866-.5zM12 4H8.8v1.52H12A2.482 2.482 0 0 1 14.48 8 2.482 2.482 0 0 1 12 10.48H8.8V12H12c2.208 0 4-1.792 4-4s-1.792-4-4-4zM1.52 8A2.482 2.482 0 0 1 4 5.52h3.2V4H4C1.792 4 0 5.792 0 8s1.792 4 4 4h3.2v-1.52H4A2.482 2.482 0 0 1 1.52 8z"/>
    </g>
</svg>
