<svg width="73" height="72" viewBox="0 0 73 72" fill="none" xmlns="http://www.w3.org/2000/svg">
  <path d="M29.0864 49.185C30.725 52.5948 33.2792 55.482 36.4637 57.5242C39.6482 59.5665 43.3377 60.6833 47.1202 60.75H63.8377C63.8377 60.75 58.8989 58.5 62.8252 51.8963C64.6374 49.0696 65.6781 45.8178 65.844 42.4642C66.01 39.1106 65.2952 35.772 63.7709 32.7803C62.2466 29.7885 59.9658 27.2478 57.1552 25.4108C54.3446 23.5737 51.1022 22.5043 47.7502 22.3088C46.5108 22.2393 45.2677 22.2883 44.0377 22.455" stroke="#CDCCCA" stroke-width="1.5" stroke-linecap="round" stroke-linejoin="round"/>
  <path d="M10.1752 40.6462C8.53021 38.0811 7.51811 35.162 7.22224 32.1291C6.92638 29.0963 7.35521 26.0366 8.47341 23.2019C9.59162 20.3673 11.3672 17.8388 13.654 15.8248C15.9407 13.8107 18.6732 12.3687 21.6264 11.6175C24.5796 10.8663 27.669 10.8274 30.6401 11.504C33.6113 12.1805 36.3793 13.5533 38.716 15.5091C41.0528 17.4649 42.8915 19.9478 44.0808 22.7534C45.27 25.5589 45.7758 28.6069 45.5564 31.6462C44.8589 41.5125 35.7352 49.5 25.8802 49.5H9.16269C9.16269 49.5 14.1014 47.25 10.1752 40.6462Z" stroke="#CDCCCA" stroke-width="1.5" stroke-linecap="round" stroke-linejoin="round"/>
  <path fill-rule="evenodd" clip-rule="evenodd" d="M19.5 30C19.5 31.6569 18.1569 33 16.5 33C14.8431 33 13.5 31.6569 13.5 30C13.5 28.3431 14.8431 27 16.5 27C18.1569 27 19.5 28.3431 19.5 30ZM29.5 30C29.5 31.6569 28.1569 33 26.5 33C24.8431 33 23.5 31.6569 23.5 30C23.5 28.3431 24.8431 27 26.5 27C28.1569 27 29.5 28.3431 29.5 30ZM36.5 33C38.1569 33 39.5 31.6569 39.5 30C39.5 28.3431 38.1569 27 36.5 27C34.8431 27 33.5 28.3431 33.5 30C33.5 31.6569 34.8431 33 36.5 33Z" fill="#FAC242"/>
</svg>
