<svg width="73" height="72" viewBox="0 0 73 72" fill="none" xmlns="http://www.w3.org/2000/svg">
  <path d="M13.9991 50.625C11.651 46.9152 10.2219 42.6986 9.83054 38.3255C9.43921 33.9524 10.097 29.5491 11.7491 25.4813C13.0399 22.1246 15.0338 19.0829 17.597 16.5605C20.1603 14.038 23.2335 12.093 26.6104 10.8563C46.0054 3.75752 64.1742 18.2363 63.6679 36.7313C63.2629 51.21 50.4716 63 36.0379 63H12.5591C12.5591 63 19.4891 59.8163 13.9991 50.625Z" stroke="#CDCCCA" stroke-width="1.5" stroke-linecap="round" stroke-linejoin="round"/>
  <path d="M36.5 23.625L39.9762 30.6675L47.75 31.8038L42.125 37.2825L43.4525 45.0225L36.5 41.3662L29.5475 45.0225L30.875 37.2825L25.25 31.8038L33.0237 30.6675L36.5 23.625Z" fill="#FAC242"/>
</svg>
