<?xml version="1.0" encoding="UTF-8" standalone="no"?>
<svg width="538px" height="538px" viewBox="0 0 538 538" version="1.1" xmlns="http://www.w3.org/2000/svg" xmlns:xlink="http://www.w3.org/1999/xlink">
    <defs></defs>
    <g id="Page-1" stroke="none" stroke-width="1" fill="none" fill-rule="evenodd">
        <path d="M269,538 C120.435402,538 0,417.564598 0,269 C0,120.435402 120.435402,0 269,0 C417.564598,0 538,120.435402 538,269 C538,417.564598 417.564598,538 269,538 Z M269.5,269 C316.168061,269 354,231.168061 354,184.5 C354,137.831939 316.168061,100 269.5,100 C222.831939,100 185,137.831939 185,184.5 C185,231.168061 222.831939,269 269.5,269 Z M99.3284857,343.45538 L99.3285376,343.455346 C127.897299,409.101056 193.338513,455 269.5,455 C347.597156,455 414.422196,406.738334 441.777835,338.412288 C393.163284,308.350273 335.857829,291 274.5,291 C209.788128,291 149.583774,310.298976 99.3284857,343.45538 Z" id="Combined-Shape" fill="#cdccca"></path>
    </g>
</svg>
